# xmcd CD database file
#
# Track frame offsets:
#	150
#	17055
#	31450
#	47680
#	68950
#	82635
#	98068
#	109758
#	125570
#	137670
#	154343
#	172348
#	184228
#	198750
#	213320
#	232488
#
# Disc length: 3250 seconds
#
# Revision: 0
# Processed by: cddbd v1.5.1PL0 Copyright (c) Steve Scherf et al.
# Submitted via: CDex 1.51
#
DISCID=e20cb010
DTITLE=Rita Reys - Summertime
DYEAR=2000
DGENRE=Jazz
TTITLE0=Summertime
TTITLE1=How deep is the ocean
TTITLE2=I get a kick out of you
TTITLE3=Willow weep for me
TTITLE4=My funny Valentine
TTITLE5=Love for sale
TTITLE6=Gone with the wind
TTITLE7=You don't know what love is
TTITLE8=Old devil moon
TTITLE9=Spring will be a little late this year
TTITLE10=When the blues come on
TTITLE11=Wives and lovers
TTITLE12=The song is you
TTITLE13=No moon at all
TTITLE14=My one and only love
TTITLE15=Bluesette
EXTD=YEAR: 2000
EXTT0=
EXTT1=
EXTT2=
EXTT3=
EXTT4=
EXTT5=
EXTT6=
EXTT7=
EXTT8=
EXTT9=
EXTT10=
EXTT11=
EXTT12=
EXTT13=
EXTT14=
EXTT15=
PLAYORDER=
